<svg width="32" height="32" viewBox="0 0 32 32" fill="none" xmlns="http://www.w3.org/2000/svg">
<g id="bed-double">
<path id="Vector" d="M2.6665 26.6666V15.9999C2.6665 15.2927 2.94746 14.6144 3.44755 14.1143C3.94765 13.6142 4.62593 13.3333 5.33317 13.3333H26.6665C27.3737 13.3333 28.052 13.6142 28.5521 14.1143C29.0522 14.6144 29.3332 15.2927 29.3332 15.9999V26.6666" stroke="#6A669D" stroke-linecap="round" stroke-linejoin="round"/>
<path id="Vector_2" d="M5.3335 13.3333V7.99992C5.3335 7.29267 5.61445 6.6144 6.11454 6.1143C6.61464 5.6142 7.29292 5.33325 8.00016 5.33325H24.0002C24.7074 5.33325 25.3857 5.6142 25.8858 6.1143C26.3859 6.6144 26.6668 7.29267 26.6668 7.99992V13.3333" stroke="#6A669D" stroke-linecap="round" stroke-linejoin="round"/>
<path id="Vector_3" d="M16 5.33325V13.3333" stroke="#6A669D" stroke-linecap="round" stroke-linejoin="round"/>
<path id="Vector_4" d="M2.6665 24H29.3332" stroke="#6A669D" stroke-linecap="round" stroke-linejoin="round"/>
</g>
</svg>
