<svg width="32" height="32" viewBox="0 0 32 32" fill="none" xmlns="http://www.w3.org/2000/svg">
<g id="sofa">
<path id="Vector" d="M26.6668 11.9999V7.99992C26.6668 7.29267 26.3859 6.6144 25.8858 6.1143C25.3857 5.6142 24.7074 5.33325 24.0002 5.33325H8.00016C7.29292 5.33325 6.61464 5.6142 6.11454 6.1143C5.61445 6.6144 5.3335 7.29267 5.3335 7.99992V11.9999" stroke="#6A669D" stroke-linecap="round" stroke-linejoin="round"/>
<path id="Vector_2" d="M2.6665 14.6667V21.3333C2.6665 22.0406 2.94746 22.7189 3.44755 23.219C3.94765 23.719 4.62593 24 5.33317 24H26.6665C27.3737 24 28.052 23.719 28.5521 23.219C29.0522 22.7189 29.3332 22.0406 29.3332 21.3333V14.6667C29.3332 13.9594 29.0522 13.2811 28.5521 12.781C28.052 12.281 27.3737 12 26.6665 12C25.9593 12 25.281 12.281 24.7809 12.781C24.2808 13.2811 23.9998 13.9594 23.9998 14.6667V17.3333H7.99984V14.6667C7.99984 13.9594 7.71889 13.2811 7.21879 12.781C6.71869 12.281 6.04041 12 5.33317 12C4.62593 12 3.94765 12.281 3.44755 12.781C2.94746 13.2811 2.6665 13.9594 2.6665 14.6667Z" stroke="#6A669D" stroke-linecap="round" stroke-linejoin="round"/>
<path id="Vector_3" d="M5.3335 24V26.6667" stroke="#6A669D" stroke-linecap="round" stroke-linejoin="round"/>
<path id="Vector_4" d="M26.6665 24V26.6667" stroke="#6A669D" stroke-linecap="round" stroke-linejoin="round"/>
<path id="Vector_5" d="M16 5.33325V17.3333" stroke="#6A669D" stroke-linecap="round" stroke-linejoin="round"/>
</g>
</svg>
