<svg width="32" height="32" viewBox="0 0 32 32" fill="none" xmlns="http://www.w3.org/2000/svg">
<g id="air-vent">
<path id="Vector" d="M7.99984 16H5.33317C4.62593 16 3.94765 15.719 3.44755 15.219C2.94746 14.7189 2.6665 14.0406 2.6665 13.3333V6.66667C2.6665 5.95942 2.94746 5.28115 3.44755 4.78105C3.94765 4.28095 4.62593 4 5.33317 4H26.6665C27.3737 4 28.052 4.28095 28.5521 4.78105C29.0522 5.28115 29.3332 5.95942 29.3332 6.66667V13.3333C29.3332 14.0406 29.0522 14.7189 28.5521 15.219C28.052 15.719 27.3737 16 26.6665 16H23.9998" stroke="#6A669D" stroke-linecap="round" stroke-linejoin="round"/>
<path id="Vector_2" d="M8 10.6667H24" stroke="#6A669D" stroke-linecap="round" stroke-linejoin="round"/>
<path id="Vector_3" d="M24.3998 23.6C24.964 24.1898 25.2921 24.9662 25.322 25.7818C25.3519 26.5975 25.0815 27.3958 24.5621 28.0253C24.0426 28.6549 23.3103 29.072 22.5038 29.1976C21.6973 29.3232 20.8728 29.1485 20.1865 28.7067C19.7403 28.4141 19.3699 28.0198 19.1056 27.5562C18.8414 27.0927 18.6909 26.573 18.6665 26.04V16" stroke="#6A669D" stroke-linecap="round" stroke-linejoin="round"/>
<path id="Vector_4" d="M8.80023 20.8C8.48516 21.1089 8.25168 21.4912 8.1207 21.9125C7.98971 22.3339 7.96533 22.7811 8.04973 23.2142C8.13412 23.6473 8.32467 24.0527 8.60428 24.394C8.88389 24.7353 9.24382 25.0019 9.65182 25.1699C10.0598 25.3379 10.5031 25.4021 10.942 25.3566C11.3809 25.3111 11.8016 25.1574 12.1665 24.9093C12.5314 24.6613 12.829 24.3265 13.0327 23.9351C13.2364 23.5437 13.3398 23.1079 13.3336 22.6667V16" stroke="#6A669D" stroke-linecap="round" stroke-linejoin="round"/>
</g>
</svg>
