<svg width="40" height="40" viewBox="0 0 40 40" fill="none" xmlns="http://www.w3.org/2000/svg">
<g id="baggage-claim">
<path id="Vector" d="M36.6666 29.9999H9.99998C9.11592 29.9999 8.26808 29.6487 7.64296 29.0236C7.01784 28.3985 6.66665 27.5506 6.66665 26.6666V11.6666C6.66665 10.7825 6.31546 9.93468 5.69034 9.30956C5.06521 8.68444 4.21737 8.33325 3.33331 8.33325" stroke="#6A669D" stroke-width="1.66667" stroke-linecap="round" stroke-linejoin="round"/>
<path id="Vector_2" d="M28.3333 23.3333V6.66659C28.3333 5.78253 27.9821 4.93468 27.357 4.30956C26.7319 3.68444 25.8841 3.33325 25 3.33325H23.3333C22.4493 3.33325 21.6014 3.68444 20.9763 4.30956C20.3512 4.93468 20 5.78253 20 6.66659V23.3333" stroke="#6A669D" stroke-width="1.66667" stroke-linecap="round" stroke-linejoin="round"/>
<path id="Vector_3" d="M33.3333 10H15C14.0795 10 13.3333 10.7462 13.3333 11.6667V21.6667C13.3333 22.5871 14.0795 23.3333 15 23.3333H33.3333C34.2538 23.3333 35 22.5871 35 21.6667V11.6667C35 10.7462 34.2538 10 33.3333 10Z" stroke="#6A669D" stroke-width="1.66667" stroke-linecap="round" stroke-linejoin="round"/>
<path id="Vector_4" d="M30 36.6667C31.841 36.6667 33.3334 35.1743 33.3334 33.3333C33.3334 31.4924 31.841 30 30 30C28.1591 30 26.6667 31.4924 26.6667 33.3333C26.6667 35.1743 28.1591 36.6667 30 36.6667Z" stroke="#6A669D" stroke-width="1.66667" stroke-linecap="round" stroke-linejoin="round"/>
<path id="Vector_5" d="M15 36.6667C16.841 36.6667 18.3334 35.1743 18.3334 33.3333C18.3334 31.4924 16.841 30 15 30C13.1591 30 11.6667 31.4924 11.6667 33.3333C11.6667 35.1743 13.1591 36.6667 15 36.6667Z" stroke="#6A669D" stroke-width="1.66667" stroke-linecap="round" stroke-linejoin="round"/>
</g>
</svg>
