<svg width="127" height="69" viewBox="0 0 127 69" fill="none" xmlns="http://www.w3.org/2000/svg">
<g id="Lux 2">
<g id="Clip path group">
<mask id="mask0_157477_6569" style="mask-type:luminance" maskUnits="userSpaceOnUse" x="24" y="1" width="76" height="40">
<g id="19428e27ce">
<path id="Vector" d="M24.916 1.15716H99.1988V40.5031H24.916V1.15716Z" fill="white"/>
</g>
</mask>
<g mask="url(#mask0_157477_6569)">
<g id="Group">
<path id="Vector_2" d="M59.9843 33.6883L62.6755 36.4119C55.8769 42.1348 45.3311 41.6985 39.1141 35.4129L24.916 21.0605L37.26 10.564C44.0561 4.76201 54.6652 5.17789 60.9114 11.4907L66.5346 17.1751L63.6026 19.6749L57.9793 13.9905C53.2198 9.17848 45.1316 8.86205 39.9536 13.283L30.6464 21.23C30.5977 21.2707 30.5953 21.3385 30.6366 21.3837L42.0438 32.9108C46.7789 37.6957 54.8014 38.0347 59.9843 33.6883ZM72.1579 22.8573L66.5346 17.1729L63.605 19.6727L69.2283 25.3571C72.3283 28.4921 77.5963 28.6977 80.9688 25.8182L87.0885 20.5949L78.6134 12.0286C75.5402 8.92082 70.3378 8.6948 66.9605 11.4997L69.6541 14.221C71.4158 12.7971 74.0948 12.9237 75.6837 14.5307L81.3873 20.2942C81.4287 20.3395 81.4262 20.4073 81.38 20.4479L78.2776 23.0969C76.5208 24.5977 73.7736 24.4892 72.1579 22.8573ZM84.8182 6.73292C78.6012 0.447252 68.0554 0.0110296 61.2569 5.73391L63.9505 8.45747C69.1334 4.11107 77.1559 4.4501 81.8886 9.23499L93.2933 20.7621C93.3371 20.8073 93.3347 20.8751 93.286 20.9158L83.9787 28.8605C78.7983 33.2837 70.7126 32.965 65.9531 28.1553L54.7065 16.7864C51.6041 13.6537 46.3385 13.4458 42.9636 16.3253L36.8439 21.5487L45.319 30.1149C48.3922 33.2227 53.5945 33.4487 56.9719 30.6461L54.2807 27.9225C52.519 29.3464 49.84 29.2199 48.2511 27.6128L42.5475 21.8493C42.5061 21.8063 42.5085 21.7363 42.5572 21.6956L45.6596 19.0466C47.4164 17.5458 50.1612 17.6543 51.7793 19.2884L57.4026 24.9706L63.0234 30.6551C69.2696 36.9679 79.8787 37.3838 86.6748 31.5818L99.0188 21.0853L84.8182 6.73292Z" fill="white"/>
</g>
</g>
</g>
<g id="Group_2">
<g id="Group_3">
<g id="Group_4">
<path id="Vector_3" d="M93.3902 58.8059H83.6279L83.6669 58.5799C83.9978 58.5799 84.2606 58.5686 84.4552 58.5437C84.6499 58.5144 84.8275 58.4443 84.9906 58.3358C85.1585 58.2228 85.2777 58.0917 85.3507 57.9471C85.4285 57.7979 85.4918 57.5538 85.5453 57.2147C85.6159 56.7695 85.6524 55.8722 85.6524 54.5206V49.8103C85.6524 47.9252 85.5551 46.7793 85.3604 46.3747C85.1852 46.0199 84.8859 45.8187 84.465 45.769C84.263 45.7464 83.9978 45.7328 83.6669 45.7328L83.6279 45.5249H89.1271L89.0785 45.7328C88.402 45.7328 87.9056 45.8549 87.5893 46.0945C87.2511 46.3612 87.0832 47.5998 87.0832 49.8103V54.8008C87.0832 56.1705 87.127 57.0791 87.2194 57.5312C87.3168 57.9787 87.5431 58.277 87.9007 58.4262C91.4095 58.4262 93.1663 57.6487 93.1663 56.0937L93.3902 56.0575V58.8059Z" fill="white"/>
</g>
</g>
</g>
<g id="Group_5">
<g id="Group_6">
<g id="Group_7">
<path id="Vector_4" d="M102.108 56.7265C102.327 56.2383 102.49 55.7411 102.594 55.2348C102.697 54.7285 102.75 54.186 102.75 53.6074C102.75 53.0243 102.733 52.5361 102.701 52.1428C102.675 51.7518 102.626 51.4014 102.555 51.094C102.49 50.7821 102.375 50.5561 102.215 50.416C101.915 50.1764 101.419 50.0543 100.726 50.0543L100.687 49.8464C101.867 49.7085 103.032 49.6385 104.181 49.6385V54.5929C104.181 55.9987 104.225 56.9209 104.317 57.3594C104.414 57.7933 104.648 58.0103 105.018 58.0103C105.251 58.0103 105.556 57.9199 105.933 57.7391L106.04 57.9289C105.928 58.0081 105.782 58.1007 105.602 58.2092C105.427 58.3177 105.067 58.4601 104.522 58.6341C103.981 58.8082 103.461 58.8963 102.954 58.8963C102.818 58.1685 102.75 57.3209 102.75 56.3558C102.12 58.1165 101.037 58.9958 99.4993 58.9958C97.4164 58.9958 96.3749 57.9832 96.3749 55.958V54.1227C96.3749 52.2241 96.2703 51.0805 96.0635 50.6872C95.9978 50.5493 95.881 50.4228 95.7131 50.3075C95.5428 50.1945 95.3578 50.1244 95.1583 50.0995C94.9636 50.0702 94.6935 50.0543 94.3505 50.0543L94.3115 49.8464C95.499 49.7085 96.6621 49.6385 97.8057 49.6385V55.7682C97.8057 56.6429 97.9517 57.3029 98.2437 57.7481C98.5357 58.1889 98.9883 58.4081 99.6063 58.4081C100.229 58.4081 100.748 58.2522 101.164 57.938C101.577 57.6193 101.894 57.2147 102.108 56.7265Z" fill="white"/>
</g>
</g>
</g>
<g id="Group_8">
<g id="Group_9">
<g id="Group_10">
<path id="Vector_5" d="M113.944 50.5517C113.944 50.2217 113.596 50.0544 112.903 50.0544L112.864 49.8284H116.621L116.582 50.0544C116.224 50.0544 115.822 50.1245 115.375 50.2624C115.102 50.3528 114.562 50.9495 113.759 52.0525C113.433 52.4932 113.156 52.8571 112.922 53.1464L112.202 54.0595L113.535 56.0937C114.217 57.1425 114.762 57.8206 115.17 58.1279C115.579 58.4308 116.08 58.58 116.679 58.58L116.718 58.806H111.9L111.939 58.58C112.333 58.58 112.606 58.5574 112.757 58.5077C112.905 58.4534 112.98 58.3178 112.98 58.1008C112.98 57.8793 112.632 57.2397 111.939 56.1842L111.209 55.0902L110.713 55.7321C109.783 56.9074 109.321 57.6917 109.321 58.0827C109.321 58.415 109.642 58.58 110.284 58.58L110.323 58.806H106.547L106.586 58.58C107.228 58.58 107.691 58.4783 107.978 58.2726C108.114 58.1596 108.223 58.0714 108.309 58.0104C108.399 57.9449 108.535 57.8025 108.717 57.5855C108.905 57.364 109.043 57.1877 109.136 57.0611C109.233 56.9345 109.413 56.695 109.681 56.3378C109.946 55.983 110.168 55.7005 110.343 55.488L110.956 54.6924L109.691 52.7305C108.956 51.623 108.401 50.8998 108.026 50.5607C107.649 50.224 107.211 50.0544 106.712 50.0544L106.673 49.8284H111.082L111.044 50.0544C110.674 50.0544 110.413 50.0861 110.265 50.1448C110.114 50.1991 110.041 50.294 110.041 50.4251C110.041 50.5585 110.455 51.2976 111.287 52.6401L111.958 53.6798L112.552 52.9023C113.479 51.727 113.944 50.945 113.944 50.5517Z" fill="white"/>
</g>
</g>
</g>
<g id="Group_11">
<g id="Group_12">
<g id="Group_13">
<path id="Vector_6" d="M11.6573 49.8103V54.5206C11.6573 55.8722 11.6987 56.7943 11.7839 57.2871C11.8739 57.7821 12.0004 58.0917 12.1634 58.2183C12.4798 58.4601 12.9762 58.5799 13.6526 58.5799L13.7013 58.8059H8.18262L8.22155 58.5799C8.56464 58.5799 8.82987 58.5686 9.01966 58.5437C9.20702 58.5144 9.38465 58.4443 9.55498 58.3358C9.73018 58.2228 9.85184 58.0917 9.92484 57.9471C10.0027 57.7979 10.066 57.5538 10.1195 57.2147C10.1901 56.7695 10.2266 55.8722 10.2266 54.5206V49.8103C10.2266 48.4971 10.1828 47.5817 10.1 47.0618C10.0222 46.5442 9.89807 46.221 9.73018 46.0945C9.40412 45.8549 8.90286 45.7328 8.22155 45.7328L8.18262 45.5249H13.7013L13.6526 45.7328C12.9762 45.7328 12.4798 45.8549 12.1634 46.0945C11.8252 46.3612 11.6573 47.5998 11.6573 49.8103Z" fill="white"/>
</g>
</g>
</g>
<g id="Group_14">
<g id="Group_15">
<g id="Group_16">
<path id="Vector_7" d="M18.8262 49.6385V53.0378C18.9479 52.1292 19.2885 51.3359 19.8482 50.6601C20.4054 49.9798 21.1475 49.6385 22.0771 49.6385C24.1599 49.6385 25.2014 50.651 25.2014 52.6762V55.6778C25.2014 56.9932 25.2914 57.8069 25.4739 58.1188C25.654 58.4262 26.1406 58.5799 26.9339 58.5799L26.9728 58.8059H22.0089L22.0576 58.5799C22.8679 58.5799 23.3545 58.4239 23.5175 58.1098C23.6854 57.7911 23.7706 56.9231 23.7706 55.506V52.8661C23.7706 51.9936 23.6246 51.3359 23.3326 50.8951C23.0406 50.4499 22.5759 50.2261 21.9408 50.2261C21.3033 50.2261 20.7753 50.425 20.3543 50.8228C19.9309 51.2206 19.6195 51.7246 19.4199 52.3326C19.0233 53.508 18.8262 54.6923 18.8262 55.8857C18.8262 57.0746 18.9089 57.8205 19.0793 58.1278C19.2472 58.4307 19.7338 58.5799 20.5392 58.5799L20.5782 58.8059H15.5948L15.6338 58.5799C16.4513 58.5799 16.9477 58.4262 17.1229 58.1188C17.303 57.8069 17.3954 56.9774 17.3954 55.6326V54.1227C17.3954 52.2242 17.2908 51.0805 17.084 50.6872C17.0183 50.5493 16.9015 50.4228 16.7336 50.3075C16.5633 50.1945 16.3783 50.1244 16.1788 50.0995C15.9841 50.0702 15.7141 50.0543 15.371 50.0543L15.332 49.8464C16.5195 49.7085 17.6826 49.6385 18.8262 49.6385Z" fill="white"/>
</g>
</g>
</g>
<g id="Group_17">
<g id="Group_18">
<g id="Group_19">
<path id="Vector_8" d="M31.7531 50.2441V54.5204C31.7531 55.872 31.7945 56.7942 31.8796 57.2869C31.9697 57.7819 32.0986 58.0916 32.2689 58.2181C32.5804 58.46 33.0768 58.5798 33.7581 58.5798L33.797 58.8058H28.2979L28.3465 58.5798C28.6701 58.5798 28.9305 58.5685 29.1252 58.5436C29.3247 58.5142 29.5072 58.4441 29.6702 58.3357C29.8308 58.2226 29.9476 58.0916 30.0206 57.9469C30.0985 57.7977 30.1666 57.5536 30.225 57.2146C30.2883 56.7693 30.3223 55.872 30.3223 54.5204V50.2441H28.4438V49.8282H30.3223C30.3223 47.4369 30.8114 45.8931 31.792 45.1993C32.3103 44.8444 32.9308 44.6658 33.651 44.6658C34.3762 44.6658 35.0648 44.8444 35.7145 45.1993C36.369 45.5564 36.6975 45.9587 36.6975 46.4107C36.6975 46.6051 36.6196 46.7701 36.4639 46.908C36.3082 47.0481 36.0989 47.1159 35.841 47.1159C35.5806 47.1159 35.3543 47.0165 35.1597 46.8176C34.9699 46.6142 34.8312 46.3927 34.7411 46.1576C34.656 45.9225 34.5027 45.7055 34.2837 45.5066C34.0696 45.3032 33.7995 45.1993 33.4758 45.1993C32.7751 45.1993 32.3103 45.5021 32.084 46.1033C31.8626 46.7 31.7531 47.6471 31.7531 48.9422V49.8282H34.4492V50.2441H31.7531Z" fill="white"/>
</g>
</g>
</g>
<g id="Group_20">
<g id="Group_21">
<g id="Group_22">
<path id="Vector_9" d="M37.3726 47.3692C37.139 47.1522 37.0222 46.8991 37.0222 46.6098C37.0222 46.316 37.139 46.0628 37.3726 45.8504C37.6062 45.6334 37.8787 45.5249 38.1901 45.5249C38.5016 45.5249 38.7741 45.6334 39.0077 45.8504C39.2413 46.0628 39.3581 46.316 39.3581 46.6098C39.3581 46.8991 39.2413 47.1522 39.0077 47.3692C38.7741 47.5817 38.5016 47.6857 38.1901 47.6857C37.8787 47.6857 37.6062 47.5817 37.3726 47.3692ZM38.9688 49.6385V55.6778C38.9688 57.0045 39.0515 57.8205 39.2218 58.1279C39.3897 58.4307 39.8764 58.5799 40.6818 58.5799L40.7207 58.8059H35.7374L35.7763 58.5799C36.5939 58.5799 37.0903 58.4262 37.2655 58.1188C37.4456 57.8069 37.538 56.9774 37.538 55.6326V54.3126C37.538 52.8435 37.4918 51.8716 37.4018 51.4015C37.3166 50.9268 37.1901 50.6194 37.0222 50.4793C36.6961 50.1968 36.1949 50.0544 35.5135 50.0544L35.4746 49.8464C36.662 49.7085 37.8251 49.6385 38.9688 49.6385Z" fill="white"/>
</g>
</g>
</g>
<g id="Group_23">
<g id="Group_24">
<g id="Group_25">
<path id="Vector_10" d="M45.4444 49.6386V53.038C45.566 52.1294 45.9067 51.336 46.4663 50.6602C47.0236 49.9799 47.7657 49.6386 48.6952 49.6386C50.7781 49.6386 51.8195 50.6512 51.8195 52.6763V55.6779C51.8195 56.9934 51.9096 57.807 52.0921 58.119C52.2721 58.4263 52.7588 58.58 53.552 58.58L53.591 58.8061H48.6271L48.6757 58.58C49.486 58.58 49.9727 58.4241 50.1357 58.1099C50.3036 57.7912 50.3888 56.9233 50.3888 55.5061V52.8662C50.3888 51.9938 50.2428 51.336 49.9508 50.8953C49.6588 50.45 49.194 50.2263 48.559 50.2263C47.9214 50.2263 47.3934 50.4252 46.9725 50.823C46.5491 51.2208 46.2376 51.7248 46.0381 52.3328C45.6415 53.5081 45.4444 54.6925 45.4444 55.8859C45.4444 57.0747 45.5271 57.8206 45.6974 58.128C45.8653 58.4309 46.352 58.58 47.1574 58.58L47.1963 58.8061H42.213L42.2519 58.58C43.0695 58.58 43.5659 58.4263 43.7411 58.119C43.9211 57.807 44.0136 56.9775 44.0136 55.6327V54.1229C44.0136 52.2243 43.909 51.0806 43.7021 50.6874C43.6365 50.5495 43.5197 50.4229 43.3518 50.3076C43.1814 50.1946 42.9965 50.1246 42.797 50.0997C42.6023 50.0703 42.3322 50.0545 41.9891 50.0545L41.9502 49.8466C43.1376 49.7087 44.3007 49.6386 45.4444 49.6386Z" fill="white"/>
</g>
</g>
</g>
<g id="Group_26">
<g id="Group_27">
<g id="Group_28">
<path id="Vector_11" d="M56.7173 47.3691C56.4837 47.1521 56.3669 46.8989 56.3669 46.6096C56.3669 46.3158 56.4837 46.0627 56.7173 45.8502C56.9509 45.6332 57.2234 45.5247 57.5349 45.5247C57.8463 45.5247 58.1188 45.6332 58.3524 45.8502C58.586 46.0627 58.7028 46.3158 58.7028 46.6096C58.7028 46.8989 58.586 47.1521 58.3524 47.3691C58.1188 47.5815 57.8463 47.6855 57.5349 47.6855C57.2234 47.6855 56.9509 47.5815 56.7173 47.3691ZM58.3135 49.6383V55.6776C58.3135 57.0044 58.3962 57.8203 58.5666 58.1277C58.7345 58.4306 59.2211 58.5798 60.0265 58.5798L60.0655 58.8058H55.0821L55.1211 58.5798C55.9386 58.5798 56.435 58.4261 56.6102 58.1187C56.7903 57.8068 56.8827 56.9773 56.8827 55.6324V54.3125C56.8827 52.8433 56.8365 51.8714 56.7465 51.4013C56.6613 50.9266 56.5348 50.6193 56.3669 50.4791C56.0408 50.1966 55.5396 50.0542 54.8583 50.0542L54.8193 49.8463C56.0068 49.7084 57.1699 49.6383 58.3135 49.6383Z" fill="white"/>
</g>
</g>
</g>
<g id="Group_29">
<g id="Group_30">
<g id="Group_31">
<path id="Vector_12" d="M64.2734 49.8283H66.7942V50.2442H64.2734V57.4769C64.2734 57.7436 64.3415 57.9561 64.4778 58.1188C64.614 58.277 64.7917 58.3539 65.0131 58.3539C65.5046 58.3539 66.0837 58.2228 66.7456 57.9561L66.7942 58.164C65.8404 58.72 64.9936 58.9958 64.2539 58.9958C63.7794 58.9958 63.4266 58.8895 63.193 58.6793C62.9594 58.4624 62.8426 58.0872 62.8426 57.5492V50.2442H61.626V49.8283C62.3584 49.8283 62.8718 49.6362 63.1638 49.2497C63.4558 48.8655 63.6748 48.2914 63.8257 47.5319L64.2734 47.4958V49.8283Z" fill="white"/>
</g>
</g>
</g>
<g id="Group_32">
<g id="Group_33">
<g id="Group_34">
<path id="Vector_13" d="M69.1831 62.7929C69.8644 62.7929 70.4313 62.5488 70.8864 62.0606C71.3389 61.5724 71.8061 60.7859 72.2879 59.701L69.2415 52.5587C68.7938 51.4986 68.3874 50.8183 68.0248 50.5154C67.6598 50.208 67.2292 50.0543 66.7303 50.0543L66.6914 49.8283H71.7526L71.7137 50.0543C71.2319 50.0543 70.901 50.1267 70.7209 50.2713C70.5384 50.4115 70.4484 50.6239 70.4484 50.9132C70.4484 51.4918 70.7647 52.5293 71.4022 54.0233L72.979 57.7029L74.5752 53.1463C74.8867 52.2377 75.0424 51.5506 75.0424 51.085C75.0424 50.3979 74.5655 50.0543 73.6116 50.0543L73.5727 49.8283H77.4075L77.3686 50.0543C76.8089 50.0543 76.4172 50.2239 76.1909 50.5606C75.9695 50.8997 75.5534 51.9326 74.9451 53.6616L73.1055 58.8602C72.5021 60.5711 71.7964 61.8889 70.9934 62.811C70.1953 63.7332 69.3583 64.1943 68.4823 64.1943C68.0857 64.1943 67.7572 64.1219 67.4993 63.9773C67.2462 63.8326 67.1197 63.6292 67.1197 63.3716C67.1197 63.1116 67.2024 62.9105 67.3727 62.7658C67.5406 62.6212 67.7231 62.5488 67.9178 62.5488C68.1173 62.5488 68.3412 62.5873 68.5894 62.6664C68.8351 62.75 69.0322 62.7929 69.1831 62.7929Z" fill="white"/>
</g>
</g>
</g>
</g>
</svg>
