<svg width="40" height="40" viewBox="0 0 40 40" fill="none" xmlns="http://www.w3.org/2000/svg">
<g id="parking-square">
<path id="Vector" d="M31.6667 5H8.33333C6.49238 5 5 6.49238 5 8.33333V31.6667C5 33.5076 6.49238 35 8.33333 35H31.6667C33.5076 35 35 33.5076 35 31.6667V8.33333C35 6.49238 33.5076 5 31.6667 5Z" stroke="#6A669D" stroke-width="1.66667" stroke-linecap="round" stroke-linejoin="round"/>
<path id="Vector_2" d="M15 28.3334V11.6667H21.6667C22.9927 11.6667 24.2645 12.1935 25.2022 13.1312C26.1399 14.0689 26.6667 15.3407 26.6667 16.6667C26.6667 17.9928 26.1399 19.2646 25.2022 20.2023C24.2645 21.14 22.9927 21.6667 21.6667 21.6667H15" stroke="#6A669D" stroke-width="1.66667" stroke-linecap="round" stroke-linejoin="round"/>
</g>
</svg>
