
<svg width="40" height="40" viewBox="0 0 40 40" fill="none" xmlns="http://www.w3.org/2000/svg">
<g id="utensils">
<path id="Vector" d="M5 3.3335V15.0002C5 16.8335 6.5 18.3335 8.33333 18.3335H15C15.8841 18.3335 16.7319 17.9823 17.357 17.3572C17.9821 16.7321 18.3333 15.8842 18.3333 15.0002V3.3335" stroke="#6A669D" stroke-width="1.66667" stroke-linecap="round" stroke-linejoin="round"/>
<path id="Vector_2" d="M11.6667 3.3335V36.6668" stroke="#6A669D" stroke-width="1.66667" stroke-linecap="round" stroke-linejoin="round"/>
<path id="Vector_3" d="M35 25.0002V3.3335C32.7899 3.3335 30.6703 4.21147 29.1075 5.77427C27.5447 7.33708 26.6667 9.45669 26.6667 11.6668V21.6668C26.6667 23.5002 28.1667 25.0002 30 25.0002H35ZM35 25.0002V36.6668" stroke="#6A669D" stroke-width="1.66667" stroke-linecap="round" stroke-linejoin="round"/>
</g>
</svg>

//<svg width="24" height="24" viewBox="0 0 24 24" fill="none" xmlns="http://www.w3.org/2000/svg">
//<g id="utensils">
//<path id="Vector" d="M3 2V9C3 10.1 3.9 11 5 11H9C9.53043 11 10.0391 10.7893 10.4142 10.4142C10.7893 10.0391 11 9.53043 11 9V2" stroke="#6A669D" stroke-linecap="round" stroke-linejoin="round"/>
//<path id="Vector_2" d="M7 2V22" stroke="#6A669D" stroke-linecap="round" stroke-linejoin="round"/>
//<path id="Vector_3" d="M21 15V2C19.6739 2 18.4021 2.52678 17.4645 3.46447C16.5268 4.40215 16 5.67392 16 7V13C16 14.1 16.9 15 18 15H21ZM21 15V22" stroke="#6A669D" stroke-linecap="round" stroke-linejoin="round"/>
//</g>
//</svg>