<svg width="40" height="40" viewBox="0 0 40 40" fill="none" xmlns="http://www.w3.org/2000/svg">
<g id="waves">
<path id="Vector" d="M3.33337 10.0002C4.33337 10.8335 5.33337 11.6668 7.50004 11.6668C11.6667 11.6668 11.6667 8.3335 15.8334 8.3335C20.1667 8.3335 19.8334 11.6668 24.1667 11.6668C28.3334 11.6668 28.3334 8.3335 32.5 8.3335C34.6667 8.3335 35.6667 9.16683 36.6667 10.0002" stroke="#6A669D" stroke-width="1.66667" stroke-linecap="round" stroke-linejoin="round"/>
<path id="Vector_2" d="M3.33337 20.0002C4.33337 20.8335 5.33337 21.6668 7.50004 21.6668C11.6667 21.6668 11.6667 18.3335 15.8334 18.3335C20.1667 18.3335 19.8334 21.6668 24.1667 21.6668C28.3334 21.6668 28.3334 18.3335 32.5 18.3335C34.6667 18.3335 35.6667 19.1668 36.6667 20.0002" stroke="#6A669D" stroke-width="1.66667" stroke-linecap="round" stroke-linejoin="round"/>
<path id="Vector_3" d="M3.33337 30.0002C4.33337 30.8335 5.33337 31.6668 7.50004 31.6668C11.6667 31.6668 11.6667 28.3335 15.8334 28.3335C20.1667 28.3335 19.8334 31.6668 24.1667 31.6668C28.3334 31.6668 28.3334 28.3335 32.5 28.3335C34.6667 28.3335 35.6667 29.1668 36.6667 30.0002" stroke="#6A669D" stroke-width="1.66667" stroke-linecap="round" stroke-linejoin="round"/>
</g>
</svg>
