
<svg width="40" height="40" viewBox="0 0 40 40" fill="none" xmlns="http://www.w3.org/2000/svg">
<g id="wifi">
<path id="Vector" d="M8.33337 21.6671C11.4489 18.6133 15.6375 16.9028 20 16.9028C24.3626 16.9028 28.5512 18.6133 31.6667 21.6671" stroke="#6A669D" stroke-width="1.66667" stroke-linecap="round" stroke-linejoin="round"/>
<path id="Vector_2" d="M14.1666 27.5003C15.7244 25.9734 17.8187 25.1182 20 25.1182C22.1812 25.1182 24.2756 25.9734 25.8333 27.5003" stroke="#6A669D" stroke-width="1.66667" stroke-linecap="round" stroke-linejoin="round"/>
<path id="Vector_3" d="M3.33337 14.7001C7.91689 10.6005 13.8506 8.33398 20 8.33398C26.1495 8.33398 32.0832 10.6005 36.6667 14.7001" stroke="#6A669D" stroke-width="1.66667" stroke-linecap="round" stroke-linejoin="round"/>
<path id="Vector_4" d="M20 33.3335H20.0167" stroke="#6A669D" stroke-width="1.66667" stroke-linecap="round" stroke-linejoin="round"/>
</g>
</svg>

//<svg width="24" height="24" viewBox="0 0 24 24" fill="none" xmlns="http://www.w3.org/2000/svg">
//<g id="wifi">
//<path id="Vector" d="M5 13.0001C6.86929 11.1678 9.38247 10.1415 12 10.1415C14.6175 10.1415 17.1307 11.1678 19 13.0001" stroke="#6A669D" stroke-linecap="round" stroke-linejoin="round"/>
//<path id="Vector_2" d="M8.5 16.5C9.43464 15.5838 10.6912 15.0707 12 15.0707C13.3088 15.0707 14.5654 15.5838 15.5 16.5" stroke="#6A669D" stroke-linecap="round" stroke-linejoin="round"/>
//<path id="Vector_3" d="M2 8.82003C4.75011 6.36025 8.31034 5.00037 12 5.00037C15.6897 5.00037 19.2499 6.36025 22 8.82003" stroke="#6A669D" stroke-linecap="round" stroke-linejoin="round"/>
//<path id="Vector_4" d="M12 20H12.01" stroke="#6A669D" stroke-linecap="round" stroke-linejoin="round"/>
// </g>
//</svg>