<svg width="56" height="56" viewBox="0 0 56 56" fill="none" xmlns="http://www.w3.org/2000/svg">
<g id="phone-call">
<path id="Vector" d="M51.3333 39.4802V46.4802C51.336 47.13 51.2029 47.7733 50.9425 48.3687C50.6822 48.9641 50.3004 49.4986 49.8215 49.9379C49.3427 50.3772 48.7773 50.7116 48.1618 50.9198C47.5462 51.128 46.8939 51.2053 46.2467 51.1469C39.0666 50.3667 32.1697 47.9132 26.11 43.9835C20.4723 40.4011 15.6925 35.6213 12.11 29.9835C8.16662 23.8963 5.71257 16.9658 4.94667 9.75352C4.88836 9.10828 4.96505 8.45796 5.17184 7.84398C5.37863 7.22999 5.71101 6.66579 6.14779 6.1873C6.58458 5.70881 7.11622 5.32651 7.70885 5.06474C8.30149 4.80297 8.94214 4.66746 9.59001 4.66685H16.59C17.7224 4.65571 18.8202 5.0567 19.6788 5.7951C20.5374 6.53349 21.0982 7.55889 21.2567 8.68019C21.5521 10.9203 22.1001 13.1199 22.89 15.2369C23.2039 16.072 23.2719 16.9797 23.0858 17.8522C22.8997 18.7248 22.4674 19.5258 21.84 20.1602L18.8767 23.1235C22.1983 28.9651 27.0351 33.8019 32.8767 37.1235L35.84 34.1602C36.4744 33.5328 37.2754 33.1005 38.148 32.9144C39.0205 32.7283 39.9282 32.7963 40.7633 33.1102C42.8803 33.9001 45.0799 34.4481 47.32 34.7435C48.4535 34.9034 49.4886 35.4743 50.2286 36.3477C50.9686 37.221 51.3617 38.3359 51.3333 39.4802Z" stroke="#6A669D" stroke-width="2.33333" stroke-linecap="round" stroke-linejoin="round"/>
<path id="Vector_2" d="M32.7833 4.66663C37.5393 5.16775 41.9817 7.27715 45.376 10.646C48.7703 14.0148 50.9131 18.4413 51.45 23.1933" stroke="#6A669D" stroke-width="2.33333" stroke-linecap="round" stroke-linejoin="round"/>
<path id="Vector_3" d="M32.7833 14C35.0782 14.4525 37.184 15.5844 38.8276 17.2487C40.4711 18.913 41.5764 21.033 42 23.3333" stroke="#6A669D" stroke-width="2.33333" stroke-linecap="round" stroke-linejoin="round"/>
</g>
</svg>
