<svg width="135" height="135" viewBox="0 0 135 135" fill="none" xmlns="http://www.w3.org/2000/svg">
<g id="Group 143">
<circle id="Ellipse 151" cx="2.635" cy="2.635" r="2.635" fill="#6A669D"/>
<circle id="Ellipse 156" cx="2.635" cy="35.0676" r="2.635" fill="#6A669D"/>
<circle id="Ellipse 160" cx="35.0686" cy="35.0676" r="2.635" fill="#6A669D"/>
<circle id="Ellipse 157" cx="2.635" cy="67.5012" r="2.635" fill="#6A669D"/>
<circle id="Ellipse 161" cx="35.0686" cy="67.5012" r="2.635" fill="#6A669D"/>
<circle id="Ellipse 158" cx="2.635" cy="99.9338" r="2.635" fill="#6A669D"/>
<circle id="Ellipse 162" cx="35.0686" cy="99.9338" r="2.635" fill="#6A669D"/>
<circle id="Ellipse 159" cx="2.635" cy="132.369" r="2.635" fill="#6A669D"/>
<circle id="Ellipse 163" cx="35.0686" cy="132.369" r="2.635" fill="#6A669D"/>
<circle id="Ellipse 152" cx="35.0686" cy="2.635" r="2.635" fill="#6A669D"/>
<circle id="Ellipse 153" cx="67.5002" cy="2.635" r="2.635" fill="#6A669D"/>
<circle id="Ellipse 164" cx="67.5022" cy="35.0676" r="2.635" fill="#6A669D"/>
<circle id="Ellipse 165" cx="67.5002" cy="67.5012" r="2.635" fill="#6A669D"/>
<circle id="Ellipse 166" cx="67.5022" cy="99.9338" r="2.635" fill="#6A669D"/>
<circle id="Ellipse 167" cx="67.5002" cy="132.369" r="2.635" fill="#6A669D"/>
<circle id="Ellipse 154" cx="99.9338" cy="2.635" r="2.635" fill="#6A669D"/>
<circle id="Ellipse 168" cx="99.9338" cy="35.0676" r="2.635" fill="#6A669D"/>
<circle id="Ellipse 169" cx="99.9338" cy="67.5012" r="2.635" fill="#6A669D"/>
<circle id="Ellipse 170" cx="99.9338" cy="99.9338" r="2.635" fill="#6A669D"/>
<circle id="Ellipse 171" cx="99.9338" cy="132.369" r="2.635" fill="#6A669D"/>
<circle id="Ellipse 155" cx="132.369" cy="2.635" r="2.635" fill="#6A669D"/>
<circle id="Ellipse 172" cx="132.369" cy="35.0676" r="2.635" fill="#6A669D"/>
<circle id="Ellipse 173" cx="132.369" cy="67.5012" r="2.635" fill="#6A669D"/>
<circle id="Ellipse 174" cx="132.369" cy="99.9338" r="2.635" fill="#6A669D"/>
<circle id="Ellipse 175" cx="132.369" cy="132.369" r="2.635" fill="#6A669D"/>
</g>
</svg>
