<svg width="128" height="40" viewBox="0 0 128 40" fill="none" xmlns="http://www.w3.org/2000/svg">
<g id="app-store.svg" clip-path="url(#clip0_157484_3443)">
<g id="Group">
<path id="Vector" d="M123.994 40H3.99414C1.79414 40 -0.00585938 38.2 -0.00585938 36V4C-0.00585938 1.8 1.79414 0 3.99414 0H123.994C126.194 0 127.994 1.8 127.994 4V36C127.994 38.2 126.194 40 123.994 40Z" fill="black"/>
<path id="Vector_2" d="M26.9941 19.8005C26.9941 16.7005 29.5941 15.2005 29.6941 15.1005C28.1941 13.0005 25.9941 12.7005 25.1941 12.6005C23.2941 12.4005 21.3941 13.7005 20.4941 13.7005C19.4941 13.7005 17.9941 12.6005 16.3941 12.6005C14.2941 12.6005 12.3941 13.8005 11.2941 15.7005C9.09415 19.5005 10.6941 25.1005 12.7941 28.2005C13.8941 29.7005 15.0941 31.4005 16.6941 31.3005C18.2941 31.2005 18.8941 30.3005 20.7941 30.3005C22.6941 30.3005 23.1941 31.3005 24.8941 31.3005C26.5941 31.3005 27.6941 29.8005 28.6941 28.3005C29.8941 26.6005 30.3941 24.9005 30.3941 24.8005C30.2941 24.7005 26.9941 23.5005 26.9941 19.8005Z" fill="white"/>
<path id="Vector_3" d="M23.8943 10.5996C24.6943 9.49961 25.2943 8.09961 25.1943 6.59961C23.9943 6.69961 22.3943 7.39961 21.5943 8.49961C20.7943 9.39961 20.0943 10.8996 20.2943 12.2996C21.5943 12.3996 22.9943 11.5996 23.8943 10.5996Z" fill="white"/>
<path id="Vector_4" d="M49.7941 31.1002H47.5941L46.3941 27.3002H42.1941L41.0941 31.1002H38.9941L43.1941 18.2002H45.7941L49.7941 31.1002ZM45.9941 25.7002L44.8941 22.3002C44.7941 22.0002 44.5941 21.1002 44.1941 19.9002C44.0941 20.4002 43.8941 21.3002 43.5941 22.3002L42.4941 25.7002H45.9941Z" fill="white"/>
<path id="Vector_5" d="M60.4941 26.4002C60.4941 28.0002 60.0941 29.2002 59.1941 30.2002C58.3941 31.0002 57.4941 31.4002 56.2941 31.4002C55.0941 31.4002 54.1941 31.0002 53.6941 30.1002V35.0002H51.5941V25.0002C51.5941 24.0002 51.5941 23.0002 51.4941 21.9002H53.2941L53.3941 23.4002C54.0941 22.3002 55.0941 21.7002 56.4941 21.7002C57.5941 21.7002 58.4941 22.1002 59.1941 23.0002C60.0941 23.8002 60.4941 24.9002 60.4941 26.4002ZM58.3941 26.4002C58.3941 25.5002 58.1941 24.7002 57.7941 24.2002C57.3941 23.6002 56.7941 23.3002 55.9941 23.3002C55.4941 23.3002 54.9941 23.5002 54.5941 23.8002C54.1941 24.1002 53.8941 24.6002 53.7941 25.1002C53.6941 25.4002 53.6941 25.6002 53.6941 25.7002V27.3002C53.6941 28.0002 53.8941 28.5002 54.2941 29.0002C54.6941 29.5002 55.2941 29.7002 55.8941 29.7002C56.6941 29.7002 57.2941 29.4002 57.6941 28.8002C58.1941 28.2002 58.3941 27.4002 58.3941 26.4002Z" fill="white"/>
<path id="Vector_6" d="M71.1934 26.4002C71.1934 28.0002 70.7934 29.2002 69.8934 30.2002C69.0934 31.0002 68.1934 31.4002 66.9934 31.4002C65.7934 31.4002 64.8934 31.0002 64.3934 30.1002V35.0002H62.2934V25.0002C62.2934 24.0002 62.2934 23.0002 62.1934 21.9002H63.9934L64.0934 23.4002C64.7934 22.3002 65.7934 21.7002 67.1934 21.7002C68.2934 21.7002 69.1934 22.1002 69.8934 23.0002C70.7934 23.8002 71.1934 24.9002 71.1934 26.4002ZM69.0934 26.4002C69.0934 25.5002 68.8934 24.7002 68.4934 24.2002C68.0934 23.6002 67.4934 23.3002 66.6934 23.3002C66.1934 23.3002 65.6934 23.5002 65.2934 23.8002C64.8934 24.1002 64.5934 24.6002 64.4934 25.1002C64.3934 25.4002 64.3934 25.6002 64.3934 25.7002V27.3002C64.3934 28.0002 64.5934 28.5002 64.9934 29.0002C65.3934 29.5002 65.9934 29.7002 66.5934 29.7002C67.3934 29.7002 67.9934 29.4002 68.3934 28.8002C68.8934 28.2002 69.0934 27.4002 69.0934 26.4002Z" fill="white"/>
<path id="Vector_7" d="M83.193 27.4996C83.193 28.5996 82.793 29.4996 82.093 30.1996C81.293 30.9996 80.093 31.2996 78.593 31.2996C77.193 31.2996 76.093 30.9996 75.293 30.4996L75.793 28.7996C76.693 29.2996 77.693 29.5996 78.793 29.5996C79.593 29.5996 80.193 29.3996 80.593 29.0996C80.993 28.6996 81.193 28.2996 81.193 27.6996C81.193 27.1996 80.993 26.6996 80.693 26.3996C80.293 25.9996 79.693 25.6996 78.893 25.3996C76.593 24.5996 75.493 23.2996 75.493 21.6996C75.493 20.5996 75.893 19.7996 76.693 19.0996C77.493 18.3996 78.493 18.0996 79.893 18.0996C81.093 18.0996 81.993 18.2996 82.793 18.6996L82.293 20.3996C81.593 19.9996 80.793 19.7996 79.793 19.7996C79.093 19.7996 78.493 19.9996 78.093 20.2996C77.793 20.5996 77.593 20.9996 77.593 21.4996C77.593 21.9996 77.793 22.3996 78.193 22.7996C78.493 23.0996 79.193 23.3996 80.093 23.7996C81.193 24.1996 81.993 24.7996 82.593 25.3996C82.893 25.8996 83.193 26.5996 83.193 27.4996Z" fill="white"/>
<path id="Vector_8" d="M89.993 23.4H87.693V27.9C87.693 29 88.093 29.6 88.893 29.6C89.293 29.6 89.593 29.6 89.793 29.5L89.893 31.1C89.493 31.3 88.993 31.3 88.293 31.3C87.493 31.3 86.793 31.1 86.393 30.6C85.893 30.1 85.693 29.3 85.693 28.1V23.4H84.293V21.8H85.693V20.1L87.693 19.5V21.8H89.993V23.4Z" fill="white"/>
<path id="Vector_9" d="M100.293 26.4001C100.293 27.8001 99.8934 29.0001 99.0934 29.9001C98.1934 30.8001 97.0934 31.3001 95.6934 31.3001C94.2934 31.3001 93.1934 30.8001 92.3934 29.9001C91.5934 29.0001 91.1934 27.9001 91.1934 26.5001C91.1934 25.1001 91.5934 23.9001 92.4934 23.0001C93.2934 22.1001 94.4934 21.6001 95.8934 21.6001C97.2934 21.6001 98.3934 22.1001 99.1934 23.0001C99.8934 23.9001 100.293 25.0001 100.293 26.4001ZM98.0934 26.5001C98.0934 25.6001 97.8934 24.9001 97.4934 24.3001C97.0934 23.6001 96.3934 23.2001 95.5934 23.2001C94.7934 23.2001 94.0934 23.6001 93.6934 24.3001C93.2934 24.9001 93.0934 25.7001 93.0934 26.5001C93.0934 27.4001 93.2934 28.1001 93.6934 28.7001C94.0934 29.4001 94.7934 29.8001 95.5934 29.8001C96.3934 29.8001 96.9934 29.4001 97.4934 28.7001C97.8934 28.1001 98.0934 27.3001 98.0934 26.5001Z" fill="white"/>
<path id="Vector_10" d="M106.995 23.6C106.795 23.6 106.595 23.5 106.295 23.5C105.595 23.5 104.995 23.8 104.595 24.3C104.295 24.8 104.095 25.4 104.095 26.1V31H101.995V24.6C101.995 23.5 101.995 22.6 101.895 21.7H103.695L103.795 23.5H103.895C104.095 22.9 104.495 22.4 104.895 22C105.395 21.7 105.895 21.5 106.395 21.5C106.595 21.5 106.795 21.5 106.895 21.5L106.995 23.6Z" fill="white"/>
<path id="Vector_11" d="M116.195 26.0001C116.195 26.4001 116.195 26.7001 116.095 26.9001H109.895C109.895 27.8001 110.195 28.5001 110.795 29.0001C111.295 29.4001 111.995 29.7001 112.795 29.7001C113.695 29.7001 114.595 29.6001 115.295 29.3001L115.595 30.7001C114.695 31.1001 113.695 31.3001 112.495 31.3001C111.095 31.3001 109.895 30.9001 109.095 30.0001C108.295 29.2001 107.895 28.0001 107.895 26.6001C107.895 25.2001 108.295 24.0001 108.995 23.1001C109.795 22.1001 110.895 21.6001 112.295 21.6001C113.595 21.6001 114.695 22.1001 115.295 23.1001C115.995 23.9001 116.195 24.9001 116.195 26.0001ZM114.295 25.5001C114.295 24.9001 114.195 24.4001 113.895 23.9001C113.495 23.3001 112.995 23.0001 112.295 23.0001C111.595 23.0001 111.095 23.3001 110.695 23.8001C110.395 24.2001 110.195 24.8001 110.095 25.4001H114.295V25.5001Z" fill="white"/>
<path id="Vector_12" d="M45.3934 10.2998C45.3934 11.3998 45.0934 12.2998 44.3934 12.8998C43.7934 13.3998 42.8934 13.6998 41.6934 13.6998C41.0934 13.6998 40.5934 13.6998 40.1934 13.5998V7.3998C40.6934 7.2998 41.2934 7.2998 41.9934 7.2998C43.0934 7.2998 43.8934 7.4998 44.4934 7.9998C44.9934 8.4998 45.3934 9.2998 45.3934 10.2998ZM44.2934 10.2998C44.2934 9.5998 44.0934 8.9998 43.6934 8.5998C43.2934 8.1998 42.6934 7.9998 41.9934 7.9998C41.6934 7.9998 41.3934 7.9998 41.1934 8.0998V12.7998C41.2934 12.7998 41.5934 12.7998 41.8934 12.7998C42.6934 12.7998 43.2934 12.5998 43.6934 12.1998C44.0934 11.7998 44.2934 11.0998 44.2934 10.2998Z" fill="white"/>
<path id="Vector_13" d="M50.9941 11.2999C50.9941 11.9999 50.7941 12.5999 50.3941 12.9999C49.9941 13.4999 49.3941 13.6999 48.6941 13.6999C47.9941 13.6999 47.4941 13.4999 47.0941 12.9999C46.6941 12.5999 46.4941 11.9999 46.4941 11.2999C46.4941 10.5999 46.6941 9.9999 47.0941 9.5999C47.4941 9.0999 48.0941 8.8999 48.7941 8.8999C49.4941 8.8999 49.9941 9.0999 50.3941 9.5999C50.7941 9.9999 50.9941 10.5999 50.9941 11.2999ZM49.9941 11.2999C49.9941 10.8999 49.8941 10.4999 49.6941 10.1999C49.4941 9.7999 49.1941 9.6999 48.7941 9.6999C48.3941 9.6999 48.0941 9.8999 47.8941 10.1999C47.6941 10.4999 47.5941 10.8999 47.5941 11.2999C47.5941 11.6999 47.6941 12.0999 47.8941 12.3999C48.0941 12.7999 48.3941 12.8999 48.7941 12.8999C49.1941 12.8999 49.4941 12.6999 49.6941 12.2999C49.8941 12.0999 49.9941 11.6999 49.9941 11.2999Z" fill="white"/>
<path id="Vector_14" d="M58.6941 9L57.2941 13.6H56.3941L55.7941 11.6C55.5941 11.1 55.4941 10.6 55.3941 10.1C55.2941 10.6 55.1941 11.1 54.9941 11.6L54.3941 13.6H53.4941L51.9941 9H52.9941L53.4941 11.2C53.5941 11.7 53.6941 12.2 53.7941 12.7C53.8941 12.3 53.9941 11.8 54.1941 11.2L54.7941 9H55.5941L56.1941 11.1C56.3941 11.6 56.4941 12.1 56.5941 12.6C56.6941 12.1 56.7941 11.6 56.8941 11.1L57.4941 9H58.6941Z" fill="white"/>
<path id="Vector_15" d="M63.8941 13.6003H62.8941V11.0003C62.8941 10.2003 62.5941 9.80029 61.9941 9.80029C61.6941 9.80029 61.4941 9.90029 61.2941 10.1003C61.0941 10.3003 60.9941 10.6003 60.9941 10.9003V13.6003H59.9941V10.3003C59.9941 9.90029 59.9941 9.50029 59.9941 9.00029H60.8941V9.70029C60.9941 9.50029 61.1941 9.30029 61.3941 9.10029C61.6941 8.90029 61.9941 8.80029 62.2941 8.80029C62.6941 8.80029 63.0941 8.90029 63.3941 9.20029C63.7941 9.50029 63.8941 10.0003 63.8941 10.7003V13.6003Z" fill="white"/>
<path id="Vector_16" d="M66.6934 13.5999H65.6934V6.8999H66.6934V13.5999Z" fill="white"/>
<path id="Vector_17" d="M72.6934 11.2999C72.6934 11.9999 72.4934 12.5999 72.0934 12.9999C71.6934 13.4999 71.0934 13.6999 70.3934 13.6999C69.6934 13.6999 69.1934 13.4999 68.7934 12.9999C68.3934 12.5999 68.1934 11.9999 68.1934 11.2999C68.1934 10.5999 68.3934 9.9999 68.7934 9.5999C69.1934 9.1999 69.7934 8.8999 70.4934 8.8999C71.1934 8.8999 71.6934 9.0999 72.0934 9.5999C72.4934 9.9999 72.6934 10.5999 72.6934 11.2999ZM71.6934 11.2999C71.6934 10.8999 71.5934 10.4999 71.3934 10.1999C71.1934 9.7999 70.8934 9.6999 70.4934 9.6999C70.0934 9.6999 69.7934 9.8999 69.5934 10.1999C69.3934 10.4999 69.2934 10.8999 69.2934 11.2999C69.2934 11.6999 69.3934 12.0999 69.5934 12.3999C69.7934 12.7999 70.0934 12.8999 70.4934 12.8999C70.8934 12.8999 71.1934 12.6999 71.3934 12.2999C71.5934 12.0999 71.6934 11.6999 71.6934 11.2999Z" fill="white"/>
<path id="Vector_18" d="M77.5945 13.5999H76.6945L76.5945 13.0999C76.2945 13.4999 75.7945 13.6999 75.2945 13.6999C74.8945 13.6999 74.4945 13.5999 74.2945 13.2999C74.0945 12.9999 73.8945 12.6999 73.8945 12.3999C73.8945 11.7999 74.0945 11.3999 74.5945 11.0999C75.0945 10.7999 75.6945 10.6999 76.5945 10.6999V10.5999C76.5945 9.9999 76.2945 9.6999 75.6945 9.6999C75.1945 9.6999 74.8945 9.7999 74.4945 9.9999L74.2945 9.2999C74.6945 8.9999 75.1945 8.8999 75.8945 8.8999C77.0945 8.8999 77.6945 9.4999 77.6945 10.7999V12.4999C77.5945 12.9999 77.5945 13.2999 77.5945 13.5999ZM76.5945 11.9999V11.2999C75.4945 11.2999 74.8945 11.5999 74.8945 12.1999C74.8945 12.3999 74.9945 12.5999 75.0945 12.6999C75.1945 12.7999 75.3945 12.8999 75.5945 12.8999C75.7945 12.8999 75.9945 12.7999 76.1945 12.6999C76.3945 12.5999 76.4945 12.3999 76.5945 12.1999C76.5945 12.1999 76.5945 12.0999 76.5945 11.9999Z" fill="white"/>
<path id="Vector_19" d="M83.3938 13.6H82.4938V12.9C82.1938 13.5 81.6938 13.7 80.9938 13.7C80.3938 13.7 79.9937 13.5 79.5938 13.1C79.1937 12.7 79.0938 12.1 79.0938 11.4C79.0938 10.7 79.2937 10.1 79.6937 9.6C80.0937 9.2 80.5938 9 81.0938 9C81.6937 9 82.0938 9.2 82.3938 9.6V7H83.3938V12.4C83.3938 12.8 83.3938 13.2 83.3938 13.6ZM82.3938 11.7V10.9C82.3938 10.8 82.3938 10.7 82.3938 10.6C82.2938 10.4 82.1938 10.2 81.9938 10C81.7938 9.8 81.5938 9.8 81.2938 9.8C80.8938 9.8 80.5938 10 80.3938 10.3C80.1938 10.6 80.0938 11 80.0938 11.5C80.0938 12 80.1938 12.3 80.3938 12.6C80.5938 12.9 80.8938 13.1 81.2938 13.1C81.5938 13.1 81.8937 13 82.0938 12.7C82.2938 12.3 82.3938 12 82.3938 11.7Z" fill="white"/>
<path id="Vector_20" d="M92.0938 11.2999C92.0938 11.9999 91.8938 12.5999 91.4938 12.9999C91.0938 13.4999 90.4938 13.6999 89.7938 13.6999C89.0938 13.6999 88.5937 13.4999 88.1937 12.9999C87.7937 12.5999 87.5938 11.9999 87.5938 11.2999C87.5938 10.5999 87.7937 9.9999 88.1937 9.5999C88.5937 9.0999 89.1938 8.8999 89.8938 8.8999C90.5938 8.8999 91.0938 9.0999 91.4938 9.5999C91.8938 9.9999 92.0938 10.5999 92.0938 11.2999ZM90.9938 11.2999C90.9938 10.8999 90.8937 10.4999 90.6937 10.1999C90.4937 9.7999 90.1938 9.6999 89.7938 9.6999C89.3938 9.6999 89.0938 9.8999 88.8938 10.1999C88.6938 10.4999 88.5938 10.8999 88.5938 11.2999C88.5938 11.6999 88.6938 12.0999 88.8938 12.3999C89.0938 12.7999 89.3938 12.8999 89.7938 12.8999C90.1938 12.8999 90.4937 12.6999 90.6937 12.2999C90.8937 12.0999 90.9938 11.6999 90.9938 11.2999Z" fill="white"/>
<path id="Vector_21" d="M97.5934 13.6003H96.5934V11.0003C96.5934 10.2003 96.2934 9.80029 95.6934 9.80029C95.3934 9.80029 95.1934 9.90029 94.9934 10.1003C94.7934 10.3003 94.6934 10.6003 94.6934 10.9003V13.6003H93.6934V10.3003C93.6934 9.90029 93.6934 9.50029 93.6934 9.00029H94.5934V9.70029C94.6934 9.50029 94.8934 9.30029 95.0934 9.10029C95.3934 8.90029 95.6934 8.80029 95.9934 8.80029C96.3934 8.80029 96.7934 8.90029 97.0934 9.20029C97.4934 9.50029 97.5934 10.0003 97.5934 10.7003V13.6003Z" fill="white"/>
<path id="Vector_22" d="M104.393 9.80039H103.293V12.0004C103.293 12.6004 103.493 12.8004 103.893 12.8004C104.093 12.8004 104.193 12.8004 104.393 12.8004V13.6004C104.193 13.7004 103.893 13.7004 103.593 13.7004C103.193 13.7004 102.893 13.6004 102.693 13.3004C102.493 13.1004 102.393 12.6004 102.393 12.1004V9.80039H101.693V9.00039H102.393V8.20039L103.393 7.90039V9.00039H104.493V9.80039H104.393Z" fill="white"/>
<path id="Vector_23" d="M109.795 13.5999H108.795V10.9999C108.795 10.1999 108.495 9.7999 107.895 9.7999C107.395 9.7999 107.095 9.9999 106.895 10.4999C106.895 10.5999 106.895 10.6999 106.895 10.8999V13.5999H105.895V6.8999H106.895V9.6999C107.195 9.1999 107.695 8.8999 108.295 8.8999C108.695 8.8999 109.095 8.9999 109.295 9.2999C109.595 9.5999 109.795 10.1999 109.795 10.7999V13.5999Z" fill="white"/>
<path id="Vector_24" d="M115.295 11.1C115.295 11.3 115.295 11.4 115.295 11.6H112.295C112.295 12.1 112.495 12.4 112.695 12.6C112.995 12.8 113.295 12.9 113.695 12.9C114.195 12.9 114.595 12.8 114.895 12.7L115.095 13.4C114.695 13.6 114.195 13.7 113.595 13.7C112.895 13.7 112.295 13.5 111.895 13.1C111.495 12.7 111.295 12.1 111.295 11.4C111.295 10.7 111.495 10.1 111.895 9.7C112.295 9.2 112.795 9 113.495 9C114.195 9 114.695 9.2 114.995 9.7C115.195 10 115.295 10.5 115.295 11.1ZM114.395 10.8C114.395 10.5 114.295 10.2 114.195 10C113.995 9.7 113.795 9.6 113.395 9.6C113.095 9.6 112.795 9.7 112.595 10C112.395 10.2 112.295 10.5 112.295 10.8H114.395Z" fill="white"/>
</g>
</g>
<defs>
<clipPath id="clip0_157484_3443">
<rect width="128" height="40" fill="white" transform="translate(-0.00585938)"/>
</clipPath>
</defs>
</svg>
