<svg width="128" height="40" viewBox="0 0 128 40" fill="none" xmlns="http://www.w3.org/2000/svg">
<g id="google-play.svg" clip-path="url(#clip0_157484_3408)">
<g id="Group">
<path id="Vector" d="M124.004 40H4.00391C1.80391 40 0.00390625 38.2 0.00390625 36V4C0.00390625 1.8 1.80391 0 4.00391 0H124.004C126.204 0 128.004 1.8 128.004 4V36C128.004 38.2 126.204 40 124.004 40Z" fill="black"/>
<path id="Vector_2" fill-rule="evenodd" clip-rule="evenodd" d="M9.80469 19.6V9.1C9.80469 8.5 10.3047 8 10.8047 8C11.3047 8 11.5047 8.1 11.8047 8.3L31.1047 18.9C31.5047 19.1 31.7047 19.4 31.7047 19.7C31.7047 20 31.5047 20.3 31.1047 20.5L11.8047 31.1C11.6047 31.2 11.3047 31.4 10.8047 31.4C10.3047 31.4 9.80469 30.9 9.80469 30.3V19.6Z" fill="url(#paint0_linear_157484_3408)"/>
<path id="Vector_3" fill-rule="evenodd" clip-rule="evenodd" d="M22.3035 19.7L10.6035 8C10.7035 8 10.7035 8 10.8035 8C11.3035 8 11.5035 8.1 11.8035 8.3L26.0035 16.1L22.3035 19.7Z" fill="url(#paint1_linear_157484_3408)"/>
<path id="Vector_4" fill-rule="evenodd" clip-rule="evenodd" d="M25.9027 23.1999L22.3027 19.5999L26.0027 15.8999L31.1027 18.6999C31.5027 18.8999 31.7027 19.1999 31.7027 19.4999C31.7027 19.7999 31.5027 20.0999 31.1027 20.2999L25.9027 23.1999Z" fill="url(#paint2_linear_157484_3408)"/>
<path id="Vector_5" fill-rule="evenodd" clip-rule="evenodd" d="M10.7031 31.1996L22.3031 19.5996L25.9031 23.1996L11.8031 30.8996C11.5031 31.0996 11.3031 31.1996 10.7031 31.1996C10.8031 31.1996 10.8031 31.1996 10.7031 31.1996Z" fill="url(#paint3_linear_157484_3408)"/>
<path id="Vector_6" fill-rule="evenodd" clip-rule="evenodd" d="M71.1043 33.9C70.6043 33.5 70.2043 32.8 70.0043 32.4L71.6043 31.7C71.7043 31.9 71.9043 32.2 72.1043 32.5C72.5043 32.9 73.1043 33.3 73.7043 33.3C74.3043 33.3 75.0043 33 75.4043 32.5C75.7043 32 75.9043 31.5 75.9043 30.8V30.2C74.7043 31.7 72.2043 31.5 70.8043 29.9C69.3043 28.3 69.3043 25.6 70.8043 24C72.3043 22.5 74.5043 22.3 75.8043 23.7V23H77.5043V30.5C77.5043 32.4 76.8043 33.5 75.9043 34.2C75.3043 34.7 74.4043 34.9 73.6043 34.9C72.7043 34.8 71.8043 34.5 71.1043 33.9ZM113.004 34.3L114.704 30.3L111.704 23.4H113.404L115.504 28.3L117.604 23.4H119.304L114.704 34.3H113.004ZM104.904 30.5C104.404 30 104.204 29.3 104.204 28.6C104.204 28 104.404 27.4 104.804 27C105.504 26.3 106.504 26 107.604 26C108.304 26 108.904 26.1 109.404 26.4C109.404 25.2 108.404 24.7 107.604 24.7C106.904 24.7 106.204 25.1 105.904 25.8L104.404 25.2C104.704 24.5 105.504 23.2 107.504 23.2C108.504 23.2 109.504 23.5 110.104 24.2C110.704 24.9 110.904 25.7 110.904 26.8V31H109.204V30.3C109.004 30.6 108.604 30.8 108.304 31C107.904 31.2 107.404 31.3 106.904 31.3C106.304 31.2 105.404 31 104.904 30.5ZM51.6043 26.9C51.6043 24.9 53.1043 22.7 55.8043 22.7C58.4043 22.7 60.0043 24.9 60.0043 26.9C60.0043 28.9 58.5043 31.1 55.8043 31.1C53.1043 31.1 51.6043 28.9 51.6043 26.9ZM60.6043 26.9C60.6043 24.9 62.1043 22.7 64.8043 22.7C67.4043 22.7 69.0043 24.9 69.0043 26.9C69.0043 28.9 67.5043 31.1 64.8043 31.1C62.2043 31.1 60.6043 28.9 60.6043 26.9ZM40.3043 29.1C37.8043 26.6 37.9043 22.5 40.4043 19.9C41.7043 18.6 43.3043 18 45.0043 18C46.6043 18 48.2043 18.6 49.4043 19.8L48.2043 21.1C46.4043 19.3 43.5043 19.4 41.8043 21.2C40.0043 23.1 40.0043 26 41.8043 27.9C43.6043 29.8 46.6043 29.9 48.4043 28C49.0043 27.4 49.2043 26.6 49.3043 25.8H45.1043V24H51.0043C51.1043 24.4 51.1043 24.9 51.1043 25.4C51.1043 26.9 50.5043 28.4 49.5043 29.4C48.4043 30.5 46.8043 31.1 45.2043 31.1C43.4043 31 41.6043 30.4 40.3043 29.1ZM82.6043 29.8C81.1043 28.2 81.1043 25.5 82.6043 23.8C84.1043 22.2 86.6043 22.2 88.0043 23.8C88.5043 24.3 88.8043 25 89.1043 25.7L83.6043 28C83.9043 28.7 84.6043 29.3 85.6043 29.3C86.5043 29.3 87.1043 29 87.7043 28.1L89.2043 29.1C89.0043 29.3 88.8043 29.5 88.7043 29.7C87.0043 31.4 84.1043 31.4 82.6043 29.8ZM93.0043 31V19.9H96.6043C98.7043 19.9 100.404 21.4 100.404 23.2C100.404 25 98.9043 26.5 97.0043 26.5H94.8043V30.9L93.0043 31ZM101.404 31V19.9H103.104V31H101.404ZM78.8043 30.8V18.4H80.6043V30.8H78.8043ZM109.304 27.7C108.904 27.4 108.304 27.3 107.704 27.3C106.504 27.3 105.804 27.9 105.804 28.6C105.804 29.3 106.504 29.7 107.204 29.7C108.204 29.7 109.304 28.9 109.304 27.7ZM58.1043 26.9C58.1043 25.7 57.3043 24.4 55.8043 24.4C54.3043 24.4 53.5043 25.7 53.5043 26.9C53.5043 28.1 54.3043 29.4 55.8043 29.4C57.2043 29.4 58.1043 28.1 58.1043 26.9ZM67.1043 26.9C67.1043 25.7 66.3043 24.4 64.8043 24.4C63.3043 24.4 62.5043 25.7 62.5043 26.9C62.5043 28.1 63.3043 29.4 64.8043 29.4C66.3043 29.4 67.1043 28.1 67.1043 26.9ZM76.0043 27.6C76.0043 27.5 76.0043 27.4 76.1043 27.3C76.1043 27.2 76.1043 27 76.1043 26.9C76.1043 26.8 76.1043 26.6 76.1043 26.5V26.4C76.1043 26.3 76.0043 26.1 76.0043 26C75.7043 25 74.8043 24.3 73.9043 24.3C72.7043 24.3 71.7043 25.5 71.7043 26.8C71.7043 28.2 72.7043 29.3 74.0043 29.3C74.8043 29.4 75.6043 28.7 76.0043 27.6ZM83.3043 26.7L87.0043 25.1C86.6043 24.4 86.0043 24.2 85.5043 24.2C84.0043 24.3 83.1043 25.9 83.3043 26.7ZM98.6043 23.3C98.6043 22.3 97.8043 21.6 96.7043 21.6H94.7043V25.1H96.8043C97.8043 25.1 98.6043 24.3 98.6043 23.3Z" fill="white"/>
<path id="Vector_7" fill-rule="evenodd" clip-rule="evenodd" d="M114.305 32.3002H114.205V32.2002H114.305H114.205V32.3002H114.305Z" fill="white"/>
<path id="Vector_8" fill-rule="evenodd" clip-rule="evenodd" d="M114.503 32.3002C114.503 32.2002 114.503 32.2002 114.503 32.3002C114.403 32.2002 114.403 32.2002 114.503 32.3002C114.403 32.3002 114.403 32.3002 114.503 32.3002ZM114.503 32.2002C114.503 32.3002 114.503 32.3002 114.503 32.2002C114.403 32.3002 114.503 32.3002 114.503 32.2002Z" fill="white"/>
<path id="Vector_9" fill-rule="evenodd" clip-rule="evenodd" d="M114.604 32.2002H114.504H114.604V32.3002V32.2002Z" fill="white"/>
<path id="Vector_10" d="M38.9043 10.0997C38.9043 8.29971 40.2043 7.19971 41.8043 7.19971C42.9043 7.19971 43.6043 7.69971 44.1043 8.39971L43.3043 8.89971C43.0043 8.49971 42.5043 8.19971 41.8043 8.19971C40.7043 8.19971 39.9043 8.99971 39.9043 10.1997C39.9043 11.3997 40.7043 12.1997 41.8043 12.1997C42.4043 12.1997 42.9043 11.8997 43.1043 11.6997V10.7997H41.5043V9.89971H44.2043V11.9997C43.7043 12.5997 42.9043 12.9997 41.9043 12.9997C40.2043 12.9997 38.9043 11.7997 38.9043 10.0997Z" fill="white"/>
<path id="Vector_11" d="M45.4043 12.8998V7.2998H49.2043V8.1998H46.3043V9.5998H49.1043V10.4998H46.3043V12.0998H49.2043V12.9998L45.4043 12.8998Z" fill="white"/>
<path id="Vector_12" d="M52.0047 12.8998V8.1998H50.3047V7.2998H54.7047V8.1998H53.0047V12.8998H52.0047Z" fill="white"/>
<path id="Vector_13" d="M58.1035 12.8998V7.2998H59.1035V12.8998H58.1035Z" fill="white"/>
<path id="Vector_14" d="M61.8035 12.8998V8.1998H60.1035V7.2998H64.5035V8.1998H62.8035V12.8998H61.8035Z" fill="white"/>
<path id="Vector_15" d="M67.7031 10.0997C67.7031 8.39971 68.9031 7.19971 70.6031 7.19971C72.3031 7.19971 73.5031 8.39971 73.5031 10.0997C73.5031 11.7997 72.3031 12.9997 70.6031 12.9997C68.9031 12.9997 67.7031 11.6997 67.7031 10.0997ZM72.4031 10.0997C72.4031 8.89971 71.7031 8.09971 70.5031 8.09971C69.4031 8.09971 68.6031 8.99971 68.6031 10.0997C68.6031 11.2997 69.3031 12.0997 70.5031 12.0997C71.7031 12.0997 72.4031 11.1997 72.4031 10.0997Z" fill="white"/>
<path id="Vector_16" d="M78.5035 12.8998L75.6035 8.8998V12.8998H74.6035V7.2998H75.6035L78.5035 11.1998V7.2998H79.5035V12.8998H78.5035Z" fill="white"/>
</g>
</g>
<defs>
<linearGradient id="paint0_linear_157484_3408" x1="16.2626" y1="6.5759" x2="21.8608" y2="29.5668" gradientUnits="userSpaceOnUse">
<stop stop-color="#006884"/>
<stop offset="1" stop-color="#8AD1D0"/>
</linearGradient>
<linearGradient id="paint1_linear_157484_3408" x1="9.42982" y1="9.8704" x2="24.6858" y2="18.1179" gradientUnits="userSpaceOnUse">
<stop stop-color="#24BBB6"/>
<stop offset="1" stop-color="#DBE692"/>
</linearGradient>
<linearGradient id="paint2_linear_157484_3408" x1="27.0027" y1="23.62" x2="27.0027" y2="15.6716" gradientUnits="userSpaceOnUse">
<stop stop-color="#FCC072"/>
<stop offset="1" stop-color="#F58A5B"/>
</linearGradient>
<linearGradient id="paint3_linear_157484_3408" x1="12.3682" y1="33.2396" x2="24.4199" y2="20.9744" gradientUnits="userSpaceOnUse">
<stop stop-color="#712B8F"/>
<stop offset="1" stop-color="#EA1D27"/>
</linearGradient>
<clipPath id="clip0_157484_3408">
<rect width="128" height="40" fill="white" transform="translate(0.00390625)"/>
</clipPath>
</defs>
</svg>
